# xmcd
#
# Track frame offsets: 
#        150
#        15321
#        28341
#        47201
#        64975
#        82727
#        103417
#        122724
#        135458
#        152486
#        165863
#        180251
#        197841
#        218273
#        240364
#
# Disc length: 3466 seconds
#
# Revision: 0
# Processed by: cddbd v1.5.2PL0 Copyright (c) Steve Scherf et al.
# Submitted via: ExactAudioCopy v0.99pb5
#
DISCID=b30d880f
DTITLE=Kenny Selcer - Live at Main Street Market and Cafe
DYEAR=2009
DGENRE=Blues
TTITLE0=Big Boss Man
TTITLE1=Reason To Believe
TTITLE2=Save Yourself
TTITLE3=Help The Poor
TTITLE4=Rock On Baby
TTITLE5=Its' All Around You
TTITLE6=Gravity
TTITLE7=Before You Accuse Me
TTITLE8=Fell For You Hard
TTITLE9=It Hurts Me Too
TTITLE10=Catch The Wind
TTITLE11=Bring It On Home To Me
TTITLE12=Another Day
TTITLE13=I Would Be With You
TTITLE14=My Babe
EXTD=
EXTT0=
EXTT1=
EXTT2=
EXTT3=
EXTT4=
EXTT5=
EXTT6=
EXTT7=
EXTT8=
EXTT9=
EXTT10=
EXTT11=
EXTT12=
EXTT13=
EXTT14=
PLAYORDER=
